<svg version="1.1" xmlns="http://www.w3.org/2000/svg" style="display: block;" viewBox="0 0 2048 2048" width="1024" height="1024"><path transform="translate(0,0)" fill="rgb(253,253,252)" d="M 0 0 L 2048 0 L 2048 2048 L 0 2048 L 0 0 z"/><path transform="translate(0,0)" fill="rgb(19,21,19)" d="M 1539.05 298.182 C 1567.57 297.026 1596.47 297.936 1625.02 298.051 L 1625.04 1006.45 C 1625.04 1038.25 1626.92 1266.38 1623.7 1273.95 C 1594.84 1274.42 1565.92 1274.01 1537.05 1274.02 L 1537.05 593.036 L 1537.05 403.502 C 1537.05 371.357 1535.99 338.817 1537.12 306.71 C 1537.24 303.372 1537.32 301.074 1539.05 298.182 z"/><path transform="translate(0,0)" fill="rgb(19,21,19)" d="M 719.873 300.012 C 748.583 299.631 777.34 299.967 806.055 299.958 L 806.018 961.733 L 806.017 1171.28 L 806.104 1235.29 C 806.127 1247.58 806.732 1260.16 805.676 1272.39 C 789.047 1276.53 739.663 1274.06 719.656 1274 C 721.441 1168.65 719.805 1063 719.805 957.619 L 719.873 300.012 z"/><path transform="translate(0,0)" fill="rgb(19,21,19)" d="M 1255.32 1354.34 C 1270.58 1353.83 1306.85 1351.96 1320.34 1355.35 C 1325.78 1356.72 1328.16 1359.6 1331.52 1363.96 C 1337.84 1372.18 1343.08 1381.58 1348.57 1390.37 L 1376.76 1435.5 L 1476.87 1596.43 C 1474.77 1557.85 1476.41 1518.42 1476.4 1479.73 C 1476.4 1445.18 1474.77 1406.7 1476.55 1372.59 C 1476.75 1368.84 1477.38 1364.92 1479.35 1361.66 C 1481.74 1357.69 1485.71 1355.78 1490.12 1354.85 C 1498.71 1353.06 1532.21 1353.17 1541.05 1354.45 C 1544.83 1354.99 1548.81 1356.05 1551.99 1358.23 C 1555.38 1360.56 1556.35 1362.79 1556.89 1366.72 C 1559.03 1382.12 1557.75 1398.79 1557.75 1414.34 L 1557.74 1504.42 L 1557.78 1645.16 C 1557.8 1669.24 1558.88 1693.77 1557.6 1717.79 C 1557.39 1721.71 1556.89 1725.86 1554.11 1728.88 C 1550.91 1732.36 1546.54 1732.96 1542.1 1733.56 C 1524.95 1733.32 1491.52 1735.85 1476.5 1732.04 C 1471.14 1730.68 1468.25 1726.85 1465.03 1722.59 C 1457.83 1713.07 1451.83 1702.3 1445.49 1692.19 L 1410.73 1636.72 C 1380.38 1588.23 1348.85 1540.04 1319.93 1490.72 L 1320 1639.44 C 1320 1665.25 1321.38 1691.86 1320.02 1717.6 C 1319.87 1720.41 1319.35 1723.1 1318.15 1725.67 C 1316.44 1729.35 1313.48 1731.54 1309.63 1732.64 C 1302.48 1734.68 1265.43 1734.22 1256.5 1733.15 C 1252.57 1732.67 1248.58 1731.7 1245.21 1729.56 C 1242.87 1728.07 1241.73 1727.04 1241.12 1724.23 C 1237.7 1708.45 1239.31 1690.19 1239.33 1674.12 L 1239.35 1598.17 L 1239.31 1450.91 C 1239.3 1424.68 1238.54 1398.17 1239.58 1371.97 C 1239.73 1368.08 1239.78 1364.23 1242 1360.88 C 1245.01 1356.31 1250.31 1355.19 1255.32 1354.34 z"/><path transform="translate(0,0)" fill="rgb(19,21,19)" d="M 288.348 300.222 C 310.014 299.107 332.231 299.914 353.927 300.099 C 355.302 402.143 354.02 504.38 354.021 606.44 L 354.039 1201.86 L 354.039 1405.25 C 354.038 1414.78 355.546 1456.92 353.907 1462.61 C 353.715 1463.28 353.206 1463.81 352.856 1464.41 L 349.25 1464.77 C 331.845 1464.47 314.073 1465.48 296.731 1464.32 C 292.325 1464.02 287.235 1462.93 284.489 1459.1 C 282.27 1456.01 282.329 1451.5 282.132 1447.85 C 280.684 1421.02 281.955 1393.53 281.956 1366.63 L 281.958 1209.16 L 281.985 494.957 C 281.988 471.34 280.403 311.846 282.601 305.823 C 283.666 302.906 285.835 301.722 288.348 300.222 z"/><path transform="translate(0,0)" fill="rgb(19,21,19)" d="M 474.123 300.237 L 475.369 300.166 C 485.862 299.607 552.219 298.198 556.9 302.408 C 560.144 322.065 558.047 358.322 558.044 379.626 L 558.001 537.573 L 558.004 1120.31 C 558.004 1138.91 559.382 1266.74 557.485 1271 C 557.082 1271.9 556.343 1272.62 555.772 1273.43 C 534.771 1275.68 512.036 1274.35 490.868 1274.16 C 486.113 1274.12 476.45 1274.67 473.05 1271.19 C 469.905 1246.11 472.003 1213.87 472.002 1188.14 L 472.007 1025.18 L 472.016 467.121 L 472.008 356.182 C 472.006 339.679 470.393 321.248 472.324 304.93 C 472.547 303.048 473.135 301.819 474.123 300.237 z"/><path transform="translate(0,0)" fill="rgb(19,21,19)" d="M 1413.05 298.147 C 1440.01 297.533 1467.05 297.966 1494.02 298.008 L 1494.05 945.25 L 1494.05 1159.53 C 1494.05 1195.97 1494.92 1232.65 1493.95 1269.06 C 1493.9 1271.06 1493.97 1272.31 1492.74 1273.97 L 1411.14 1274.01 L 1411.1 664.687 L 1411.1 426.892 C 1411.1 387.277 1409.71 347.069 1411.22 307.513 C 1411.35 304.097 1411.71 301.341 1413.05 298.147 z"/><path transform="translate(0,0)" fill="rgb(19,21,19)" d="M 974.077 1354.28 C 990.49 1353.88 1044.2 1351.19 1056.11 1357.33 C 1059.11 1362.1 1061.71 1366.95 1063.84 1372.17 C 1071.1 1390.02 1077.28 1408.48 1083.95 1426.57 L 1123.28 1533.29 L 1167.63 1653.57 C 1172.66 1667.19 1190.86 1710.15 1191.06 1721.73 C 1191.12 1724.94 1190.48 1728.27 1187.82 1730.41 C 1185.59 1732.21 1182.43 1732.8 1179.67 1733.15 C 1169.15 1734.49 1157.81 1733.15 1147.19 1733.15 C 1138.78 1733.15 1129.99 1734.05 1121.65 1733.34 C 1117.71 1733 1113.14 1732.31 1109.99 1729.71 C 1097.38 1719.32 1091.84 1669.82 1081.17 1659.33 C 1074.87 1653.14 1057.83 1655.5 1049.45 1655.64 C 1032.46 1655.61 957.919 1653.57 947.377 1656.46 C 931.726 1660.75 927.199 1720.86 911.47 1730.51 C 908.306 1732.45 904.092 1733.08 900.463 1733.38 C 892.763 1734.04 842.382 1734.05 838.39 1732.6 C 835.882 1731.69 833.461 1729.92 832.436 1727.35 C 830.67 1722.93 831.601 1716.87 832.915 1712.48 C 840.766 1686.25 851.801 1660.32 861.293 1634.59 L 916.164 1485.69 L 946.56 1402.76 C 951.486 1389.21 955.639 1372.99 962.771 1360.54 C 965.095 1356.48 969.881 1355.27 974.077 1354.28 z"/><path transform="translate(0,0)" fill="rgb(253,253,252)" d="M 1010.88 1451.77 C 1015.75 1457.03 1050.87 1566.72 1055.98 1582.25 L 1013.5 1582.16 L 966.098 1582.28 C 982.449 1539.35 994.436 1494.67 1010.88 1451.77 z"/><path transform="translate(0,0)" fill="rgb(19,21,19)" d="M 548.155 1354.26 C 591.703 1352.82 635.711 1354.16 679.307 1354.12 L 733.246 1354.09 C 743.276 1354.09 753.747 1353.49 763.701 1354.53 C 767.622 1354.95 770.787 1355.46 773.669 1358.34 C 776.69 1361.36 777.075 1366.39 777.128 1370.38 C 777.242 1379.08 779.641 1421.45 773.97 1426.02 C 770.384 1428.91 763.809 1429.47 759.331 1429.82 C 743.358 1431.06 726.741 1430.09 710.685 1430.09 L 616.916 1430.04 L 616.886 1501.97 C 638.579 1501.95 738.406 1499.18 752.642 1504.34 C 754.021 1505.49 754.613 1506.53 755.106 1508.23 C 756.951 1514.57 756.743 1557.03 756.024 1564.31 C 755.711 1567.49 754.991 1569.87 753.503 1572.67 C 750.364 1575.04 745.514 1575.46 741.699 1575.79 C 727.568 1577.04 712.75 1576.16 698.554 1576.16 L 616.927 1576.09 L 616.912 1612.73 L 616.896 1658.03 L 716.013 1657.98 C 731.876 1657.97 761.339 1655.71 775.208 1659.75 C 778.16 1660.6 779.463 1661.83 780.653 1664.67 C 783.871 1672.35 784.793 1718.15 781.373 1725.52 C 779.767 1728.98 777.046 1731.26 773.44 1732.44 C 766.954 1734.57 577.607 1734.11 556.035 1733.27 C 551.057 1733.08 544.289 1732.87 539.864 1730.54 C 537.671 1729.38 536.009 1726.14 535.418 1723.77 C 532.749 1713.03 534.396 1698.48 534.382 1687.38 L 534.365 1618.75 L 534.359 1457.09 C 534.36 1430.01 533.712 1402.78 534.395 1375.71 C 534.51 1371.12 534.309 1363.4 537.142 1359.68 C 539.827 1356.16 544.085 1355.21 548.155 1354.26 z"/><path transform="translate(0,0)" fill="rgb(19,21,19)" d="M 1289.02 300.797 L 1354.06 301.016 L 1354.02 1274.02 L 1289.09 1273.96 C 1288.02 1237.47 1288.97 1200.7 1288.97 1164.17 L 1288.96 948.426 L 1289.02 300.797 z"/><path transform="translate(0,0)" fill="rgb(19,21,19)" d="M 1111.34 298.456 C 1122.73 298.163 1159.1 295.568 1167.16 300.639 C 1168.62 312.179 1167.96 324.336 1167.96 335.969 L 1167.96 394.694 L 1167.94 589.148 L 1167.95 1113.79 C 1167.95 1129.8 1169.62 1264.69 1167.1 1271.46 L 1164.25 1272.01 C 1145.55 1272.51 1126.92 1273.2 1108.26 1271.72 C 1106.92 1245.65 1107.96 1219.02 1107.96 1192.9 L 1107.97 1041.94 L 1107.98 581.253 L 1107.95 379.476 C 1107.93 364.484 1105.94 310.826 1108.83 299.528 L 1111.34 298.456 z"/><path transform="translate(0,0)" fill="rgb(19,21,19)" d="M 1743.18 298.007 C 1759.21 297.911 1775.25 297.938 1791.28 298.088 C 1792.32 373.624 1791.29 449.305 1791.29 524.86 L 1791.32 976.08 L 1791.33 1291.31 C 1791.35 1345.09 1792.86 1399.28 1791.26 1453.01 C 1791.15 1456.94 1790.69 1459.78 1788.97 1463.32 C 1775.08 1466.41 1757.39 1464.71 1743.02 1464.75 C 1743.76 1418.05 1743.16 1371.24 1743.17 1324.53 L 1743.18 1058.98 L 1743.18 298.007 z"/><path transform="translate(0,0)" fill="rgb(19,21,19)" d="M 849.997 299.963 L 907.384 299.749 C 906.178 338.437 907.064 377.405 907.067 416.124 L 907.074 629.108 L 907.087 1273.95 C 888.361 1274.09 868.7 1275.3 850.114 1272.73 C 849.029 1235.79 849.987 1198.51 849.987 1161.53 L 849.989 947.199 L 849.997 299.963 z"/><path transform="translate(0,0)" fill="rgb(19,21,19)" d="M 1664.13 298.071 C 1678.7 297.894 1693.27 297.893 1707.84 298.069 C 1709.1 388.518 1707.9 479.169 1707.9 569.638 L 1707.89 1105.85 L 1707.87 1353.52 L 1707.99 1425.79 C 1708.02 1438.37 1709.08 1451.92 1707.29 1464.34 C 1693.25 1465.74 1678.17 1464.73 1664.03 1464.39 L 1663.98 1270.36 L 1663.97 890.928 L 1664.13 298.071 z"/><path transform="translate(0,0)" fill="rgb(19,21,19)" d="M 390.968 299.782 C 405.599 299.463 420.298 299.788 434.936 299.824 L 434.913 1463.9 C 420.198 1463.75 405.437 1463.81 390.742 1463 L 390.968 299.782 z"/><path transform="translate(0,0)" fill="rgb(19,21,19)" d="M 947.013 299.016 C 962.643 298.831 978.42 298.792 994.023 299.768 L 994.094 1271.1 L 948.066 1271.3 C 946.586 1240.67 947.699 1209.52 947.696 1178.82 L 947.696 1004.65 L 947.7 558.384 C 947.709 471.99 948.917 385.381 947.013 299.016 z"/><path transform="translate(0,0)" fill="rgb(19,21,19)" d="M 603.147 300.18 C 618.259 300.975 633.436 300.704 648.566 300.664 C 647.547 344.359 648.248 388.183 648.247 431.899 L 648.258 665.803 L 648.468 1273.77 C 633.39 1274.51 618.142 1274.05 603.042 1274.02 L 603.147 300.18 z"/><path transform="translate(0,0)" fill="rgb(19,21,19)" d="M 1030.17 299.163 C 1045.1 298.824 1060.04 298.829 1074.97 299.178 L 1074.93 998.117 L 1074.87 1191.93 L 1075.06 1241.08 C 1075.12 1250.88 1076 1261.87 1074.42 1271.53 C 1059.77 1271.05 1044.99 1271.43 1030.33 1271.41 C 1029.31 1234.73 1030.18 1197.81 1030.17 1161.1 L 1030.16 944.829 L 1030.17 299.163 z"/><path transform="translate(0,0)" fill="rgb(19,21,19)" d="M 1208.14 301.163 C 1222.75 301.102 1237.45 300.724 1252.03 301.628 L 1252.01 953.151 L 1252.01 1164.14 C 1252.01 1199.52 1253.9 1235.87 1251.74 1271.14 C 1237.26 1271.65 1222.76 1271.69 1208.27 1271.26 C 1206.53 1234.78 1208.05 1197.53 1208.06 1160.95 L 1208.1 947.178 L 1208.14 301.163 z"/></svg>